<mxfile host="app.diagrams.net" agent="Mozilla/5.0 (Windows NT 10.0; Win64; x64) AppleWebKit/537.36 (KHTML, like Gecko) Chrome/131.0.0.0 Safari/537.36" version="25.0.3">
  <diagram name="Page-1" id="evcRz7a2xH0aPITDMIp3">
    <mxGraphModel dx="5736" dy="4668" grid="1" gridSize="8" guides="1" tooltips="1" connect="1" arrows="1" fold="1" page="1" pageScale="1" pageWidth="1600" pageHeight="900" math="0" shadow="0">
      <root>
        <mxCell id="0" />
        <mxCell id="1" parent="0" />
        <mxCell id="Pq7IYaPup6Ngsr3kLZBk-2" value="" style="outlineConnect=0;dashed=0;verticalLabelPosition=bottom;verticalAlign=top;align=center;html=1;shape=mxgraph.aws3.generic_database;fillColor=#7D7C7C;gradientColor=none;fontStyle=1" parent="1" vertex="1">
          <mxGeometry x="2568" y="-2250" width="1603" height="4616" as="geometry" />
        </mxCell>
        <mxCell id="Pq7IYaPup6Ngsr3kLZBk-77" value="" style="rounded=0;whiteSpace=wrap;html=1;" parent="1" vertex="1">
          <mxGeometry x="2901" y="1214" width="975" height="80" as="geometry" />
        </mxCell>
        <mxCell id="Pq7IYaPup6Ngsr3kLZBk-76" value="" style="rounded=0;whiteSpace=wrap;html=1;" parent="1" vertex="1">
          <mxGeometry x="2896" y="738" width="975" height="80" as="geometry" />
        </mxCell>
        <mxCell id="Pq7IYaPup6Ngsr3kLZBk-75" value="" style="rounded=0;whiteSpace=wrap;html=1;" parent="1" vertex="1">
          <mxGeometry x="2906" y="262" width="975" height="80" as="geometry" />
        </mxCell>
        <mxCell id="Pq7IYaPup6Ngsr3kLZBk-74" value="" style="rounded=0;whiteSpace=wrap;html=1;" parent="1" vertex="1">
          <mxGeometry x="2888" y="-250" width="975" height="80" as="geometry" />
        </mxCell>
        <mxCell id="Pq7IYaPup6Ngsr3kLZBk-5" value="&lt;blockquote style=&quot;margin: 0 0 0 40px; border: none; padding: 0px;&quot;&gt;&lt;font style=&quot;font-size: 48px;&quot;&gt;PROFILE_DIM_SUM&lt;/font&gt;&lt;/blockquote&gt;" style="text;html=1;align=center;verticalAlign=middle;resizable=0;points=[];autosize=1;strokeColor=none;fillColor=none;fontStyle=1;labelBackgroundColor=none;fontColor=default;" parent="1" vertex="1">
          <mxGeometry x="3090.5" y="-232" width="520" height="70" as="geometry" />
        </mxCell>
        <mxCell id="Pq7IYaPup6Ngsr3kLZBk-3" value="" style="outlineConnect=0;dashed=0;verticalLabelPosition=bottom;verticalAlign=top;align=center;html=1;shape=mxgraph.aws3.generic_database;fillColor=#7D7C7C;gradientColor=none;fontStyle=1" parent="1" vertex="1">
          <mxGeometry x="-1320" y="-2367" width="1525" height="4747" as="geometry" />
        </mxCell>
        <mxCell id="Pq7IYaPup6Ngsr3kLZBk-8" value="&lt;font style=&quot;font-size: 48px;&quot;&gt;TRANSACTIONAL_ADOBE_FACT&lt;/font&gt;" style="text;strokeColor=none;align=center;fillColor=none;html=1;verticalAlign=middle;whiteSpace=wrap;rounded=0;fontStyle=1;fontColor=#000000;" parent="1" vertex="1">
          <mxGeometry x="3320.5" y="-7" width="110" height="650" as="geometry" />
        </mxCell>
        <mxCell id="Pq7IYaPup6Ngsr3kLZBk-11" value="&lt;font style=&quot;font-size: 48px;&quot;&gt;TRANSACTIONAL_OKTA_DAY_AGG&lt;/font&gt;" style="text;strokeColor=none;align=center;fillColor=none;html=1;verticalAlign=middle;whiteSpace=wrap;rounded=0;fontStyle=1" parent="1" vertex="1">
          <mxGeometry x="3374" y="1239" width="60" height="30" as="geometry" />
        </mxCell>
        <mxCell id="Pq7IYaPup6Ngsr3kLZBk-13" value="&lt;font style=&quot;font-size: 48px;&quot;&gt;TRANSACTIONAL_OKTA_USER_AGG&lt;/font&gt;" style="text;strokeColor=none;align=center;fillColor=none;html=1;verticalAlign=middle;whiteSpace=wrap;rounded=0;fontStyle=1" parent="1" vertex="1">
          <mxGeometry x="3365.5" y="763" width="60" height="30" as="geometry" />
        </mxCell>
        <mxCell id="Pq7IYaPup6Ngsr3kLZBk-19" style="edgeStyle=orthogonalEdgeStyle;rounded=0;orthogonalLoop=1;jettySize=auto;html=1;exitX=0.5;exitY=1;exitDx=0;exitDy=0;fontStyle=1" parent="1" edge="1">
          <mxGeometry relative="1" as="geometry">
            <mxPoint x="830" y="530" as="sourcePoint" />
            <mxPoint x="830" y="530" as="targetPoint" />
          </mxGeometry>
        </mxCell>
        <mxCell id="Pq7IYaPup6Ngsr3kLZBk-189" value="" style="edgeStyle=orthogonalEdgeStyle;shape=connector;rounded=0;orthogonalLoop=1;jettySize=auto;html=1;strokeColor=#FF0000;strokeWidth=10;align=center;verticalAlign=middle;fontFamily=Helvetica;fontSize=12;fontColor=default;fontStyle=1;labelBackgroundColor=none;autosize=1;resizable=0;endArrow=classic;entryX=0;entryY=0.5;entryDx=0;entryDy=0;" parent="1" source="Pq7IYaPup6Ngsr3kLZBk-23" target="Pq7IYaPup6Ngsr3kLZBk-75" edge="1">
          <mxGeometry relative="1" as="geometry">
            <mxPoint x="160" y="-870" as="targetPoint" />
            <Array as="points">
              <mxPoint x="1592" y="-870" />
              <mxPoint x="1592" y="302" />
            </Array>
          </mxGeometry>
        </mxCell>
        <mxCell id="Pq7IYaPup6Ngsr3kLZBk-23" value="" style="rounded=0;whiteSpace=wrap;html=1;fontStyle=1" parent="1" vertex="1">
          <mxGeometry x="-1110" y="-920" width="1190" height="100" as="geometry" />
        </mxCell>
        <mxCell id="Pq7IYaPup6Ngsr3kLZBk-197" value="" style="edgeStyle=orthogonalEdgeStyle;shape=connector;rounded=0;orthogonalLoop=1;jettySize=auto;html=1;strokeColor=#CC00CC;strokeWidth=10;align=center;verticalAlign=middle;fontFamily=Helvetica;fontSize=12;fontColor=default;fontStyle=1;labelBackgroundColor=none;autosize=1;resizable=0;endArrow=classic;" parent="1" source="Pq7IYaPup6Ngsr3kLZBk-24" edge="1">
          <mxGeometry relative="1" as="geometry">
            <mxPoint x="2832" y="-192" as="targetPoint" />
            <Array as="points">
              <mxPoint x="1312" y="-710" />
              <mxPoint x="1312" y="-192" />
            </Array>
          </mxGeometry>
        </mxCell>
        <mxCell id="Pq7IYaPup6Ngsr3kLZBk-24" value="" style="rounded=0;whiteSpace=wrap;html=1;fontStyle=1" parent="1" vertex="1">
          <mxGeometry x="-1110" y="-760" width="1190" height="100" as="geometry" />
        </mxCell>
        <mxCell id="Pq7IYaPup6Ngsr3kLZBk-215" value="" style="edgeStyle=orthogonalEdgeStyle;shape=connector;rounded=0;orthogonalLoop=1;jettySize=auto;html=1;strokeColor=#33FFFF;strokeWidth=10;align=center;verticalAlign=middle;fontFamily=Helvetica;fontSize=12;fontColor=default;fontStyle=1;labelBackgroundColor=none;autosize=1;resizable=0;endArrow=classic;entryX=0;entryY=0.5;entryDx=0;entryDy=0;" parent="1" edge="1">
          <mxGeometry relative="1" as="geometry">
            <mxPoint x="-316" y="-537.33" as="sourcePoint" />
            <mxPoint x="2889.000000000001" y="-694.9999999999995" as="targetPoint" />
            <Array as="points">
              <mxPoint x="872" y="-537" />
              <mxPoint x="872" y="-695" />
            </Array>
          </mxGeometry>
        </mxCell>
        <mxCell id="Pq7IYaPup6Ngsr3kLZBk-25" value="" style="rounded=0;whiteSpace=wrap;html=1;fontStyle=1" parent="1" vertex="1">
          <mxGeometry x="-1110" y="-610" width="1190" height="100" as="geometry" />
        </mxCell>
        <mxCell id="Pq7IYaPup6Ngsr3kLZBk-217" value="" style="edgeStyle=orthogonalEdgeStyle;shape=connector;rounded=0;orthogonalLoop=1;jettySize=auto;html=1;strokeColor=#33FFFF;strokeWidth=10;align=center;verticalAlign=middle;fontFamily=Helvetica;fontSize=12;fontColor=default;fontStyle=1;labelBackgroundColor=none;autosize=1;resizable=0;endArrow=classic;" parent="1" source="Pq7IYaPup6Ngsr3kLZBk-26" edge="1">
          <mxGeometry relative="1" as="geometry">
            <mxPoint x="2896" y="-680" as="targetPoint" />
            <Array as="points">
              <mxPoint x="864" y="-390" />
              <mxPoint x="864" y="-688" />
              <mxPoint x="2640" y="-688" />
              <mxPoint x="2640" y="-680" />
            </Array>
          </mxGeometry>
        </mxCell>
        <mxCell id="Pq7IYaPup6Ngsr3kLZBk-26" value="" style="rounded=0;whiteSpace=wrap;html=1;fontStyle=1" parent="1" vertex="1">
          <mxGeometry x="-1110" y="-440" width="1190" height="100" as="geometry" />
        </mxCell>
        <mxCell id="Pq7IYaPup6Ngsr3kLZBk-219" value="" style="edgeStyle=orthogonalEdgeStyle;shape=connector;rounded=0;orthogonalLoop=1;jettySize=auto;html=1;strokeColor=#33FFFF;strokeWidth=10;align=center;verticalAlign=middle;fontFamily=Helvetica;fontSize=12;fontColor=default;fontStyle=1;labelBackgroundColor=none;autosize=1;resizable=0;endArrow=classic;" parent="1" source="Pq7IYaPup6Ngsr3kLZBk-27" target="Pq7IYaPup6Ngsr3kLZBk-2" edge="1">
          <mxGeometry relative="1" as="geometry">
            <mxPoint x="705" y="-210" as="targetPoint" />
            <Array as="points">
              <mxPoint x="864" y="-210" />
              <mxPoint x="864" y="-688" />
            </Array>
          </mxGeometry>
        </mxCell>
        <mxCell id="Pq7IYaPup6Ngsr3kLZBk-27" value="" style="rounded=0;whiteSpace=wrap;html=1;fontStyle=1" parent="1" vertex="1">
          <mxGeometry x="-1120" y="-260" width="1190" height="100" as="geometry" />
        </mxCell>
        <mxCell id="Pq7IYaPup6Ngsr3kLZBk-169" value="" style="edgeStyle=orthogonalEdgeStyle;rounded=0;orthogonalLoop=1;jettySize=auto;html=1;fontFamily=Helvetica;fontSize=12;fontColor=default;fontStyle=1;labelBackgroundColor=none;autosize=1;resizable=0;strokeWidth=10;strokeColor=#00FF00;" parent="1" source="Pq7IYaPup6Ngsr3kLZBk-28" edge="1">
          <mxGeometry relative="1" as="geometry">
            <mxPoint x="2864" y="1256" as="targetPoint" />
            <Array as="points">
              <mxPoint x="2248" y="-30" />
              <mxPoint x="2248" y="1256" />
            </Array>
          </mxGeometry>
        </mxCell>
        <mxCell id="Pq7IYaPup6Ngsr3kLZBk-28" value="" style="rounded=0;whiteSpace=wrap;html=1;fontStyle=1" parent="1" vertex="1">
          <mxGeometry x="-1110" y="-80" width="1190" height="100" as="geometry" />
        </mxCell>
        <mxCell id="Pq7IYaPup6Ngsr3kLZBk-192" value="" style="edgeStyle=orthogonalEdgeStyle;shape=connector;rounded=0;orthogonalLoop=1;jettySize=auto;html=1;strokeColor=#FF0000;strokeWidth=10;align=center;verticalAlign=middle;fontFamily=Helvetica;fontSize=12;fontColor=default;fontStyle=1;labelBackgroundColor=none;autosize=1;resizable=0;endArrow=classic;" parent="1" source="Pq7IYaPup6Ngsr3kLZBk-29" edge="1">
          <mxGeometry relative="1" as="geometry">
            <mxPoint x="2856" y="304" as="targetPoint" />
            <Array as="points">
              <mxPoint x="1592" y="150" />
              <mxPoint x="1592" y="304" />
            </Array>
          </mxGeometry>
        </mxCell>
        <mxCell id="Pq7IYaPup6Ngsr3kLZBk-29" value="" style="rounded=0;whiteSpace=wrap;html=1;fontStyle=1" parent="1" vertex="1">
          <mxGeometry x="-1110" y="100" width="1190" height="100" as="geometry" />
        </mxCell>
        <mxCell id="Pq7IYaPup6Ngsr3kLZBk-194" value="" style="edgeStyle=orthogonalEdgeStyle;shape=connector;rounded=0;orthogonalLoop=1;jettySize=auto;html=1;strokeColor=#FF0000;strokeWidth=10;align=center;verticalAlign=middle;fontFamily=Helvetica;fontSize=12;fontColor=default;fontStyle=1;labelBackgroundColor=none;autosize=1;resizable=0;endArrow=classic;" parent="1" source="Pq7IYaPup6Ngsr3kLZBk-30" target="Pq7IYaPup6Ngsr3kLZBk-75" edge="1">
          <mxGeometry relative="1" as="geometry">
            <mxPoint x="725" y="340" as="targetPoint" />
            <Array as="points">
              <mxPoint x="800" y="302" />
              <mxPoint x="800" y="302" />
            </Array>
          </mxGeometry>
        </mxCell>
        <mxCell id="Pq7IYaPup6Ngsr3kLZBk-30" value="" style="rounded=0;whiteSpace=wrap;html=1;fontStyle=1" parent="1" vertex="1">
          <mxGeometry x="-1100" y="290" width="1190" height="100" as="geometry" />
        </mxCell>
        <mxCell id="Pq7IYaPup6Ngsr3kLZBk-225" value="" style="edgeStyle=orthogonalEdgeStyle;shape=connector;rounded=0;orthogonalLoop=1;jettySize=auto;html=1;strokeColor=#33FFFF;strokeWidth=10;align=center;verticalAlign=middle;fontFamily=Helvetica;fontSize=12;fontColor=default;fontStyle=1;labelBackgroundColor=none;autosize=1;resizable=0;endArrow=classic;" parent="1" source="Pq7IYaPup6Ngsr3kLZBk-31" edge="1">
          <mxGeometry relative="1" as="geometry">
            <mxPoint x="2864" y="-640" as="targetPoint" />
            <Array as="points">
              <mxPoint x="840" y="520" />
              <mxPoint x="840" y="-656" />
            </Array>
          </mxGeometry>
        </mxCell>
        <mxCell id="Pq7IYaPup6Ngsr3kLZBk-31" value="" style="rounded=0;whiteSpace=wrap;html=1;fontStyle=1" parent="1" vertex="1">
          <mxGeometry x="-1110" y="480" width="1190" height="100" as="geometry" />
        </mxCell>
        <mxCell id="Pq7IYaPup6Ngsr3kLZBk-199" style="edgeStyle=orthogonalEdgeStyle;shape=connector;rounded=0;orthogonalLoop=1;jettySize=auto;html=1;strokeColor=#CC00CC;strokeWidth=10;align=center;verticalAlign=middle;fontFamily=Helvetica;fontSize=12;fontColor=default;fontStyle=1;labelBackgroundColor=none;autosize=1;resizable=0;endArrow=classic;" parent="1" source="Pq7IYaPup6Ngsr3kLZBk-32" edge="1">
          <mxGeometry relative="1" as="geometry">
            <mxPoint x="2800" y="-192" as="targetPoint" />
            <Array as="points">
              <mxPoint x="1312" y="720" />
              <mxPoint x="1312" y="-192" />
            </Array>
          </mxGeometry>
        </mxCell>
        <mxCell id="Pq7IYaPup6Ngsr3kLZBk-32" value="" style="rounded=0;whiteSpace=wrap;html=1;fontStyle=1" parent="1" vertex="1">
          <mxGeometry x="-1110" y="670" width="1190" height="100" as="geometry" />
        </mxCell>
        <mxCell id="Pq7IYaPup6Ngsr3kLZBk-201" value="" style="edgeStyle=orthogonalEdgeStyle;shape=connector;rounded=0;orthogonalLoop=1;jettySize=auto;html=1;strokeColor=#CC00CC;strokeWidth=10;align=center;verticalAlign=middle;fontFamily=Helvetica;fontSize=12;fontColor=default;fontStyle=1;labelBackgroundColor=none;autosize=1;resizable=0;endArrow=classic;" parent="1" source="Pq7IYaPup6Ngsr3kLZBk-33" edge="1">
          <mxGeometry relative="1" as="geometry">
            <mxPoint x="2808" y="-208" as="targetPoint" />
            <Array as="points">
              <mxPoint x="1324" y="900" />
              <mxPoint x="1324" y="-184" />
            </Array>
          </mxGeometry>
        </mxCell>
        <mxCell id="Pq7IYaPup6Ngsr3kLZBk-33" value="" style="rounded=0;whiteSpace=wrap;html=1;fontStyle=1" parent="1" vertex="1">
          <mxGeometry x="-1110" y="850" width="1190" height="100" as="geometry" />
        </mxCell>
        <mxCell id="Pq7IYaPup6Ngsr3kLZBk-203" value="" style="edgeStyle=orthogonalEdgeStyle;shape=connector;rounded=0;orthogonalLoop=1;jettySize=auto;html=1;strokeColor=#CC00CC;strokeWidth=10;align=center;verticalAlign=middle;fontFamily=Helvetica;fontSize=12;fontColor=default;fontStyle=1;labelBackgroundColor=none;autosize=1;resizable=0;endArrow=classic;entryX=0;entryY=0.5;entryDx=0;entryDy=0;" parent="1" source="Pq7IYaPup6Ngsr3kLZBk-34" target="Pq7IYaPup6Ngsr3kLZBk-74" edge="1">
          <mxGeometry relative="1" as="geometry">
            <mxPoint x="715" y="1080" as="targetPoint" />
            <Array as="points">
              <mxPoint x="1324" y="1080" />
              <mxPoint x="1324" y="-208" />
              <mxPoint x="2888" y="-208" />
            </Array>
          </mxGeometry>
        </mxCell>
        <mxCell id="Pq7IYaPup6Ngsr3kLZBk-34" value="" style="rounded=0;whiteSpace=wrap;html=1;fontStyle=1" parent="1" vertex="1">
          <mxGeometry x="-1110" y="1030" width="1190" height="100" as="geometry" />
        </mxCell>
        <mxCell id="Pq7IYaPup6Ngsr3kLZBk-175" value="" style="edgeStyle=orthogonalEdgeStyle;rounded=0;orthogonalLoop=1;jettySize=auto;html=1;fontFamily=Helvetica;fontSize=12;fontColor=default;fontStyle=1;labelBackgroundColor=none;autosize=1;resizable=0;strokeWidth=10;fillColor=#00FF00;strokeColor=#00FF00;" parent="1" source="Pq7IYaPup6Ngsr3kLZBk-35" edge="1">
          <mxGeometry relative="1" as="geometry">
            <mxPoint x="2872" y="1264" as="targetPoint" />
            <Array as="points">
              <mxPoint x="784" y="1264" />
              <mxPoint x="784" y="1264" />
            </Array>
          </mxGeometry>
        </mxCell>
        <mxCell id="Pq7IYaPup6Ngsr3kLZBk-35" value="" style="rounded=0;whiteSpace=wrap;html=1;fontStyle=1" parent="1" vertex="1">
          <mxGeometry x="-1110" y="1230" width="1190" height="100" as="geometry" />
        </mxCell>
        <mxCell id="Pq7IYaPup6Ngsr3kLZBk-173" value="" style="edgeStyle=orthogonalEdgeStyle;rounded=0;orthogonalLoop=1;jettySize=auto;html=1;fontFamily=Helvetica;fontSize=12;fontColor=default;fontStyle=1;labelBackgroundColor=none;autosize=1;resizable=0;strokeWidth=10;fillColor=#00FF00;strokeColor=#00FF00;" parent="1" source="Pq7IYaPup6Ngsr3kLZBk-36" edge="1">
          <mxGeometry relative="1" as="geometry">
            <mxPoint x="2832" y="1264" as="targetPoint" />
            <Array as="points">
              <mxPoint x="2256" y="1460" />
              <mxPoint x="2256" y="1264" />
            </Array>
          </mxGeometry>
        </mxCell>
        <mxCell id="Pq7IYaPup6Ngsr3kLZBk-36" value="" style="rounded=0;whiteSpace=wrap;html=1;fontStyle=1" parent="1" vertex="1">
          <mxGeometry x="-1110" y="1410" width="1190" height="100" as="geometry" />
        </mxCell>
        <mxCell id="Pq7IYaPup6Ngsr3kLZBk-37" value="&lt;font style=&quot;font-size: 48px;&quot;&gt;&lt;span style=&quot;&quot;&gt;edw.customer_dim&lt;/span&gt;&lt;/font&gt;" style="text;strokeColor=none;align=center;fillColor=none;html=1;verticalAlign=middle;whiteSpace=wrap;rounded=0;fontStyle=1" parent="1" vertex="1">
          <mxGeometry x="-580" y="-885" width="60" height="30" as="geometry" />
        </mxCell>
        <mxCell id="Pq7IYaPup6Ngsr3kLZBk-38" value="&lt;font style=&quot;font-size: 48px;&quot;&gt;edw.customer_revenue_fact&lt;/font&gt;" style="text;strokeColor=none;align=center;fillColor=none;html=1;verticalAlign=middle;whiteSpace=wrap;rounded=0;fontStyle=1" parent="1" vertex="1">
          <mxGeometry x="-570" y="-725" width="60" height="30" as="geometry" />
        </mxCell>
        <mxCell id="Pq7IYaPup6Ngsr3kLZBk-39" value="&lt;font style=&quot;font-size: 48px;&quot;&gt;&lt;span&gt;edw.customer_substatus_dim&lt;/span&gt;&lt;/font&gt;" style="text;strokeColor=none;align=center;fillColor=none;html=1;verticalAlign=middle;whiteSpace=wrap;rounded=0;fontStyle=1" parent="1" vertex="1">
          <mxGeometry x="-580" y="-575" width="60" height="30" as="geometry" />
        </mxCell>
        <mxCell id="Pq7IYaPup6Ngsr3kLZBk-40" value="&lt;font style=&quot;font-size: 48px;&quot;&gt;&lt;span&gt;edw.dwelling_type_dim&lt;/span&gt;&lt;/font&gt;" style="text;strokeColor=none;align=center;fillColor=none;html=1;verticalAlign=middle;whiteSpace=wrap;rounded=0;fontStyle=1" parent="1" vertex="1">
          <mxGeometry x="-560" y="-405" width="60" height="30" as="geometry" />
        </mxCell>
        <mxCell id="Pq7IYaPup6Ngsr3kLZBk-42" value="&lt;font style=&quot;font-size: 48px;&quot;&gt;&lt;span&gt;edw.cust_acct_sum&lt;/span&gt;&lt;/font&gt;" style="text;strokeColor=none;align=center;fillColor=none;html=1;verticalAlign=middle;whiteSpace=wrap;rounded=0;fontStyle=1" parent="1" vertex="1">
          <mxGeometry x="-580" y="-225" width="60" height="30" as="geometry" />
        </mxCell>
        <mxCell id="Pq7IYaPup6Ngsr3kLZBk-43" value="&lt;font style=&quot;font-size: 48px;&quot;&gt;&lt;span&gt;edw.customer_guid_dtl_dim&lt;/span&gt;&lt;/font&gt;" style="text;strokeColor=none;align=center;fillColor=none;html=1;verticalAlign=middle;whiteSpace=wrap;rounded=0;fontStyle=1" parent="1" vertex="1">
          <mxGeometry x="-590" y="-45" width="60" height="30" as="geometry" />
        </mxCell>
        <mxCell id="Pq7IYaPup6Ngsr3kLZBk-45" value="&lt;font style=&quot;font-size: 48px;&quot;&gt;&lt;span&gt;webanalytics.web_contact_history&lt;/span&gt;&lt;/font&gt;" style="text;strokeColor=none;align=center;fillColor=none;html=1;verticalAlign=middle;whiteSpace=wrap;rounded=0;fontStyle=1" parent="1" vertex="1">
          <mxGeometry x="-545" y="135" width="60" height="30" as="geometry" />
        </mxCell>
        <mxCell id="Pq7IYaPup6Ngsr3kLZBk-47" value="&lt;font style=&quot;font-size: 48px;&quot;&gt;&lt;span&gt;mobile_data_temp.app_contact_history&lt;/span&gt;&lt;/font&gt;" style="text;strokeColor=none;align=center;fillColor=none;html=1;verticalAlign=middle;whiteSpace=wrap;rounded=0;fontStyle=1" parent="1" vertex="1">
          <mxGeometry x="-535" y="330" width="60" height="30" as="geometry" />
        </mxCell>
        <mxCell id="Pq7IYaPup6Ngsr3kLZBk-48" value="&lt;font style=&quot;font-size: 48px;&quot;&gt;&lt;span&gt;call.call_ivr_fact&lt;/span&gt;&lt;/font&gt;" style="text;strokeColor=none;align=center;fillColor=none;html=1;verticalAlign=middle;whiteSpace=wrap;rounded=0;fontStyle=1" parent="1" vertex="1">
          <mxGeometry x="-580" y="515" width="60" height="30" as="geometry" />
        </mxCell>
        <mxCell id="Pq7IYaPup6Ngsr3kLZBk-49" value="&lt;font style=&quot;font-size: 48px;&quot;&gt;&lt;span&gt;ciam_datamodel.tsv_guid_data&lt;/span&gt;&lt;/font&gt;" style="text;strokeColor=none;align=center;fillColor=none;html=1;verticalAlign=middle;whiteSpace=wrap;rounded=0;fontStyle=1" parent="1" vertex="1">
          <mxGeometry x="-520" y="700" width="60" height="30" as="geometry" />
        </mxCell>
        <mxCell id="Pq7IYaPup6Ngsr3kLZBk-50" value="&lt;span&gt;&lt;font style=&quot;font-size: 48px;&quot;&gt;camp_mgmt.accounts&lt;/font&gt;&lt;/span&gt;" style="text;strokeColor=none;align=center;fillColor=none;html=1;verticalAlign=middle;whiteSpace=wrap;rounded=0;fontStyle=1" parent="1" vertex="1">
          <mxGeometry x="-580" y="885" width="60" height="30" as="geometry" />
        </mxCell>
        <mxCell id="Pq7IYaPup6Ngsr3kLZBk-51" value="&lt;span&gt;&lt;font style=&quot;font-size: 48px;&quot;&gt;pstage.ALL_CUST_NOTIFICATION_METHODS&lt;/font&gt;&lt;/span&gt;" style="text;strokeColor=none;align=center;fillColor=none;html=1;verticalAlign=middle;whiteSpace=wrap;rounded=0;fontStyle=1" parent="1" vertex="1">
          <mxGeometry x="-555" y="1060" width="60" height="30" as="geometry" />
        </mxCell>
        <mxCell id="Pq7IYaPup6Ngsr3kLZBk-52" value="&lt;font style=&quot;font-size: 48px;&quot;&gt;&lt;span&gt;ciam.successful_authentications_okta&lt;/span&gt;&lt;/font&gt;" style="text;strokeColor=none;align=center;fillColor=none;html=1;verticalAlign=middle;whiteSpace=wrap;rounded=0;fontStyle=1" parent="1" vertex="1">
          <mxGeometry x="-595" y="1270" width="60" height="30" as="geometry" />
        </mxCell>
        <mxCell id="Pq7IYaPup6Ngsr3kLZBk-53" value="&lt;span&gt;&lt;font style=&quot;font-size: 48px;&quot;&gt;ciam.single_signon_okta&lt;/font&gt;&lt;/span&gt;" style="text;strokeColor=none;align=center;fillColor=none;html=1;verticalAlign=middle;whiteSpace=wrap;rounded=0;fontStyle=1" parent="1" vertex="1">
          <mxGeometry x="-605" y="1440" width="60" height="30" as="geometry" />
        </mxCell>
        <mxCell id="Pq7IYaPup6Ngsr3kLZBk-167" value="" style="edgeStyle=orthogonalEdgeStyle;rounded=0;orthogonalLoop=1;jettySize=auto;html=1;fontFamily=Helvetica;fontSize=12;fontColor=default;fontStyle=1;labelBackgroundColor=none;autosize=1;resizable=0;strokeWidth=10;entryX=0;entryY=0.5;entryDx=0;entryDy=0;fillColor=#00FF00;strokeColor=#00FF00;" parent="1" source="Pq7IYaPup6Ngsr3kLZBk-54" target="Pq7IYaPup6Ngsr3kLZBk-77" edge="1">
          <mxGeometry relative="1" as="geometry">
            <mxPoint x="700" y="1640" as="targetPoint" />
            <Array as="points">
              <mxPoint x="2256" y="1640" />
              <mxPoint x="2256" y="1254" />
            </Array>
          </mxGeometry>
        </mxCell>
        <mxCell id="Pq7IYaPup6Ngsr3kLZBk-185" value="Text" style="edgeLabel;html=1;align=center;verticalAlign=middle;resizable=0;points=[];fontFamily=Helvetica;fontSize=12;fontColor=default;fontStyle=1;labelBackgroundColor=none;autosize=1;fillColor=none;gradientColor=none;" parent="Pq7IYaPup6Ngsr3kLZBk-167" vertex="1" connectable="0">
          <mxGeometry x="0.2326" y="-3" width="40" height="32" relative="1" as="geometry">
            <mxPoint x="-18" y="-16" as="offset" />
          </mxGeometry>
        </mxCell>
        <mxCell id="Pq7IYaPup6Ngsr3kLZBk-54" value="" style="rounded=0;whiteSpace=wrap;html=1;fontStyle=1" parent="1" vertex="1">
          <mxGeometry x="-1125" y="1590" width="1190" height="100" as="geometry" />
        </mxCell>
        <mxCell id="Pq7IYaPup6Ngsr3kLZBk-55" value="&lt;font style=&quot;font-size: 48px;&quot;&gt;ciam.mfa_total_mfa_users&lt;/font&gt;" style="text;strokeColor=none;align=center;fillColor=none;html=1;verticalAlign=middle;whiteSpace=wrap;rounded=0;fontStyle=1" parent="1" vertex="1">
          <mxGeometry x="-580" y="1620" width="60" height="30" as="geometry" />
        </mxCell>
        <mxCell id="Pq7IYaPup6Ngsr3kLZBk-60" value="" style="rounded=0;whiteSpace=wrap;html=1;" parent="1" vertex="1">
          <mxGeometry x="2898.5" y="-727" width="980" height="70" as="geometry" />
        </mxCell>
        <mxCell id="Pq7IYaPup6Ngsr3kLZBk-61" value="&lt;font color=&quot;#030303&quot; style=&quot;font-size: 48px;&quot;&gt;ACCOUNT_DIM_SUM&lt;/font&gt;" style="text;align=center;html=1;verticalAlign=middle;whiteSpace=wrap;rounded=0;fontStyle=1" parent="1" vertex="1">
          <mxGeometry x="3367" y="-707" width="60" height="30" as="geometry" />
        </mxCell>
        <mxCell id="Pq7IYaPup6Ngsr3kLZBk-141" value="&lt;blockquote style=&quot;margin: 0 0 0 40px; border: none; padding: 0px;&quot;&gt;&lt;blockquote style=&quot;margin: 0 0 0 40px; border: none; padding: 0px;&quot;&gt;&lt;font color=&quot;#ffffff&quot; style=&quot;font-size: 72px;&quot;&gt;ATHENA SOURCE TABLES&lt;/font&gt;&lt;/blockquote&gt;&lt;/blockquote&gt;" style="text;strokeColor=none;align=center;fillColor=none;html=1;verticalAlign=middle;whiteSpace=wrap;rounded=0;fontFamily=Helvetica;fontSize=12;fontColor=default;fontStyle=1;labelBackgroundColor=none;autosize=1;resizable=0;" parent="1" vertex="1">
          <mxGeometry x="-1065" y="-1867" width="1000" height="104" as="geometry" />
        </mxCell>
        <mxCell id="Pq7IYaPup6Ngsr3kLZBk-142" value="&lt;font color=&quot;#ffffff&quot; style=&quot;font-size: 72px;&quot;&gt;ATHENA TARGET TABLES&lt;/font&gt;" style="text;strokeColor=none;align=center;fillColor=none;html=1;verticalAlign=middle;whiteSpace=wrap;rounded=0;fontFamily=Helvetica;fontSize=12;fontColor=default;fontStyle=1;labelBackgroundColor=none;autosize=1;resizable=0;" parent="1" vertex="1">
          <mxGeometry x="2966" y="-1806" width="896" height="104" as="geometry" />
        </mxCell>
        <mxCell id="Pq7IYaPup6Ngsr3kLZBk-144" value="" style="rounded=0;whiteSpace=wrap;html=1;" parent="1" vertex="1">
          <mxGeometry x="2889" y="1733" width="975" height="80" as="geometry" />
        </mxCell>
        <mxCell id="Pq7IYaPup6Ngsr3kLZBk-146" value="&lt;font style=&quot;font-size: 48px;&quot;&gt;JOB_LOG_TABLE&lt;/font&gt;" style="text;strokeColor=none;align=center;fillColor=none;html=1;verticalAlign=middle;whiteSpace=wrap;rounded=0;fontFamily=Helvetica;fontSize=12;fontColor=default;fontStyle=1;labelBackgroundColor=none;autosize=1;resizable=0;" parent="1" vertex="1">
          <mxGeometry x="3156" y="1741" width="420" height="70" as="geometry" />
        </mxCell>
        <mxCell id="Pq7IYaPup6Ngsr3kLZBk-155" style="edgeStyle=orthogonalEdgeStyle;shape=flexArrow;rounded=0;orthogonalLoop=1;jettySize=auto;html=1;fontFamily=Helvetica;fontSize=12;fontColor=default;fontStyle=1;labelBackgroundColor=none;autosize=1;resizable=0;" parent="1" source="Pq7IYaPup6Ngsr3kLZBk-11" target="Pq7IYaPup6Ngsr3kLZBk-11" edge="1">
          <mxGeometry relative="1" as="geometry" />
        </mxCell>
        <mxCell id="Pq7IYaPup6Ngsr3kLZBk-176" value="" style="edgeStyle=orthogonalEdgeStyle;rounded=0;orthogonalLoop=1;jettySize=auto;html=1;fontFamily=Helvetica;fontSize=12;fontColor=default;fontStyle=1;labelBackgroundColor=none;autosize=1;resizable=0;strokeWidth=10;strokeColor=#0000FF;" parent="1" edge="1">
          <mxGeometry relative="1" as="geometry">
            <mxPoint x="73" y="1648" as="sourcePoint" />
            <mxPoint x="2856" y="776" as="targetPoint" />
            <Array as="points">
              <mxPoint x="1912" y="1648" />
              <mxPoint x="1912" y="776" />
            </Array>
          </mxGeometry>
        </mxCell>
        <mxCell id="Pq7IYaPup6Ngsr3kLZBk-177" value="" style="edgeStyle=orthogonalEdgeStyle;rounded=0;orthogonalLoop=1;jettySize=auto;html=1;fontFamily=Helvetica;fontSize=12;fontColor=default;fontStyle=1;labelBackgroundColor=none;autosize=1;resizable=0;strokeWidth=10;strokeColor=#0000FF;" parent="1" edge="1">
          <mxGeometry relative="1" as="geometry">
            <mxPoint x="120" y="1462" as="sourcePoint" />
            <mxPoint x="2872" y="778" as="targetPoint" />
            <Array as="points">
              <mxPoint x="1912" y="1462" />
              <mxPoint x="1912" y="770" />
              <mxPoint x="2840" y="770" />
              <mxPoint x="2840" y="778" />
            </Array>
          </mxGeometry>
        </mxCell>
        <mxCell id="Pq7IYaPup6Ngsr3kLZBk-180" value="" style="edgeStyle=orthogonalEdgeStyle;rounded=0;orthogonalLoop=1;jettySize=auto;html=1;fontFamily=Helvetica;fontSize=12;fontColor=default;fontStyle=1;labelBackgroundColor=none;autosize=1;resizable=0;strokeWidth=10;strokeColor=#0000FF;" parent="1" edge="1">
          <mxGeometry relative="1" as="geometry">
            <mxPoint x="88" y="1272" as="sourcePoint" />
            <mxPoint x="2832" y="776" as="targetPoint" />
            <Array as="points">
              <mxPoint x="1912" y="1272" />
              <mxPoint x="1912" y="768" />
              <mxPoint x="2560" y="768" />
              <mxPoint x="2560" y="776" />
            </Array>
          </mxGeometry>
        </mxCell>
        <mxCell id="Pq7IYaPup6Ngsr3kLZBk-183" value="" style="edgeStyle=orthogonalEdgeStyle;rounded=0;orthogonalLoop=1;jettySize=auto;html=1;fontFamily=Helvetica;fontSize=12;fontColor=default;fontStyle=1;labelBackgroundColor=none;autosize=1;resizable=0;strokeWidth=10;entryX=0.16;entryY=0.652;entryDx=0;entryDy=0;entryPerimeter=0;strokeColor=#0000FF;fillColor=#0000FF;" parent="1" target="Pq7IYaPup6Ngsr3kLZBk-2" edge="1">
          <mxGeometry relative="1" as="geometry">
            <mxPoint x="88" y="-22" as="sourcePoint" />
            <mxPoint x="2600" y="768" as="targetPoint" />
            <Array as="points">
              <mxPoint x="1912" y="-22" />
              <mxPoint x="1912" y="768" />
              <mxPoint x="2825" y="768" />
            </Array>
          </mxGeometry>
        </mxCell>
        <mxCell id="Pq7IYaPup6Ngsr3kLZBk-190" value="" style="edgeStyle=orthogonalEdgeStyle;rounded=0;orthogonalLoop=1;jettySize=auto;html=1;fontFamily=Helvetica;fontSize=12;fontColor=default;fontStyle=1;labelBackgroundColor=none;autosize=1;resizable=0;strokeWidth=10;strokeColor=#FF0000;fillColor=#0000FF;" parent="1" edge="1">
          <mxGeometry relative="1" as="geometry">
            <mxPoint x="96" y="-14" as="sourcePoint" />
            <mxPoint x="2872" y="304" as="targetPoint" />
            <Array as="points">
              <mxPoint x="1600" y="-14" />
              <mxPoint x="1600" y="304" />
            </Array>
          </mxGeometry>
        </mxCell>
        <mxCell id="Pq7IYaPup6Ngsr3kLZBk-195" value="" style="edgeStyle=orthogonalEdgeStyle;shape=connector;rounded=0;orthogonalLoop=1;jettySize=auto;html=1;strokeColor=#CC00CC;strokeWidth=10;align=center;verticalAlign=middle;fontFamily=Helvetica;fontSize=12;fontColor=default;fontStyle=1;labelBackgroundColor=none;autosize=1;resizable=0;endArrow=classic;entryX=0.195;entryY=0.444;entryDx=0;entryDy=0;entryPerimeter=0;" parent="1" target="Pq7IYaPup6Ngsr3kLZBk-2" edge="1">
          <mxGeometry relative="1" as="geometry">
            <mxPoint x="88" y="-862" as="sourcePoint" />
            <mxPoint x="2504" y="-200" as="targetPoint" />
            <Array as="points">
              <mxPoint x="1312" y="-862" />
              <mxPoint x="1312" y="-200" />
            </Array>
          </mxGeometry>
        </mxCell>
        <mxCell id="Pq7IYaPup6Ngsr3kLZBk-198" value="" style="edgeStyle=orthogonalEdgeStyle;rounded=0;orthogonalLoop=1;jettySize=auto;html=1;fontFamily=Helvetica;fontSize=12;fontColor=default;fontStyle=1;labelBackgroundColor=none;autosize=1;resizable=0;strokeWidth=10;strokeColor=#CC00CC;fillColor=#0000FF;" parent="1" edge="1">
          <mxGeometry relative="1" as="geometry">
            <mxPoint x="96" y="-14" as="sourcePoint" />
            <mxPoint x="2792" y="-192" as="targetPoint" />
            <Array as="points">
              <mxPoint x="1312" y="-14" />
              <mxPoint x="1312" y="-192" />
            </Array>
          </mxGeometry>
        </mxCell>
        <mxCell id="Pq7IYaPup6Ngsr3kLZBk-204" value="" style="edgeStyle=orthogonalEdgeStyle;shape=connector;rounded=0;orthogonalLoop=1;jettySize=auto;html=1;strokeColor=#CC00CC;strokeWidth=10;align=center;verticalAlign=middle;fontFamily=Helvetica;fontSize=12;fontColor=default;fontStyle=1;labelBackgroundColor=none;autosize=1;resizable=0;endArrow=classic;" parent="1" edge="1">
          <mxGeometry relative="1" as="geometry">
            <mxPoint x="88" y="158" as="sourcePoint" />
            <mxPoint x="2800" y="-192" as="targetPoint" />
            <Array as="points">
              <mxPoint x="1320" y="158" />
              <mxPoint x="1320" y="-184" />
            </Array>
          </mxGeometry>
        </mxCell>
        <mxCell id="Pq7IYaPup6Ngsr3kLZBk-205" value="" style="edgeStyle=orthogonalEdgeStyle;shape=connector;rounded=0;orthogonalLoop=1;jettySize=auto;html=1;strokeColor=#FF0000;strokeWidth=10;align=center;verticalAlign=middle;fontFamily=Helvetica;fontSize=12;fontColor=default;fontStyle=1;labelBackgroundColor=none;autosize=1;resizable=0;endArrow=classic;" parent="1" edge="1">
          <mxGeometry relative="1" as="geometry">
            <mxPoint x="98" y="310" as="sourcePoint" />
            <mxPoint x="2914" y="310" as="targetPoint" />
            <Array as="points">
              <mxPoint x="808" y="310" />
              <mxPoint x="808" y="310" />
            </Array>
          </mxGeometry>
        </mxCell>
        <mxCell id="Pq7IYaPup6Ngsr3kLZBk-211" value="" style="edgeStyle=orthogonalEdgeStyle;shape=connector;rounded=0;orthogonalLoop=1;jettySize=auto;html=1;strokeColor=#CC00CC;strokeWidth=10;align=center;verticalAlign=middle;fontFamily=Helvetica;fontSize=12;fontColor=default;fontStyle=1;labelBackgroundColor=none;autosize=1;resizable=0;endArrow=classic;" parent="1" edge="1">
          <mxGeometry relative="1" as="geometry">
            <mxPoint x="106" y="318" as="sourcePoint" />
            <mxPoint x="2808" y="-184" as="targetPoint" />
            <Array as="points">
              <mxPoint x="1320" y="318" />
              <mxPoint x="1320" y="-192" />
            </Array>
          </mxGeometry>
        </mxCell>
        <mxCell id="Pq7IYaPup6Ngsr3kLZBk-212" value="" style="edgeStyle=orthogonalEdgeStyle;shape=connector;rounded=0;orthogonalLoop=1;jettySize=auto;html=1;strokeColor=#33FFFF;strokeWidth=10;align=center;verticalAlign=middle;fontFamily=Helvetica;fontSize=12;fontColor=default;fontStyle=1;labelBackgroundColor=none;autosize=1;resizable=0;endArrow=classic;entryX=0;entryY=0.75;entryDx=0;entryDy=0;" parent="1" target="Pq7IYaPup6Ngsr3kLZBk-60" edge="1">
          <mxGeometry relative="1" as="geometry">
            <mxPoint x="96" y="-854" as="sourcePoint" />
            <mxPoint x="2368" y="-760" as="targetPoint" />
            <Array as="points">
              <mxPoint x="864" y="-854" />
              <mxPoint x="864" y="-688" />
            </Array>
          </mxGeometry>
        </mxCell>
        <mxCell id="Pq7IYaPup6Ngsr3kLZBk-213" value="" style="edgeStyle=orthogonalEdgeStyle;shape=connector;rounded=0;orthogonalLoop=1;jettySize=auto;html=1;strokeColor=#33FFFF;strokeWidth=10;align=center;verticalAlign=middle;fontFamily=Helvetica;fontSize=12;fontColor=default;fontStyle=1;labelBackgroundColor=none;autosize=1;resizable=0;endArrow=classic;" parent="1" target="Pq7IYaPup6Ngsr3kLZBk-2" edge="1">
          <mxGeometry relative="1" as="geometry">
            <mxPoint x="88" y="-702" as="sourcePoint" />
            <mxPoint x="2840" y="-184" as="targetPoint" />
            <Array as="points">
              <mxPoint x="1320" y="-702" />
              <mxPoint x="1320" y="-680" />
            </Array>
          </mxGeometry>
        </mxCell>
        <mxCell id="Pq7IYaPup6Ngsr3kLZBk-220" value="" style="edgeStyle=orthogonalEdgeStyle;rounded=0;orthogonalLoop=1;jettySize=auto;html=1;fontFamily=Helvetica;fontSize=12;fontColor=default;fontStyle=1;labelBackgroundColor=none;autosize=1;resizable=0;strokeWidth=10;strokeColor=#33FFFF;fillColor=#0000FF;" parent="1" edge="1">
          <mxGeometry relative="1" as="geometry">
            <mxPoint x="104" y="-6" as="sourcePoint" />
            <mxPoint x="2832" y="-672" as="targetPoint" />
            <Array as="points">
              <mxPoint x="864" y="-6" />
              <mxPoint x="864" y="-672" />
            </Array>
          </mxGeometry>
        </mxCell>
        <mxCell id="Pq7IYaPup6Ngsr3kLZBk-221" value="" style="edgeStyle=orthogonalEdgeStyle;shape=connector;rounded=0;orthogonalLoop=1;jettySize=auto;html=1;strokeColor=#33FFFF;strokeWidth=10;align=center;verticalAlign=middle;fontFamily=Helvetica;fontSize=12;fontColor=default;fontStyle=1;labelBackgroundColor=none;autosize=1;resizable=0;endArrow=classic;" parent="1" edge="1">
          <mxGeometry relative="1" as="geometry">
            <mxPoint x="96" y="166" as="sourcePoint" />
            <mxPoint x="2840" y="-680" as="targetPoint" />
            <Array as="points">
              <mxPoint x="856" y="166" />
              <mxPoint x="856" y="-680" />
            </Array>
          </mxGeometry>
        </mxCell>
        <mxCell id="Pq7IYaPup6Ngsr3kLZBk-222" value="" style="edgeStyle=orthogonalEdgeStyle;shape=connector;rounded=0;orthogonalLoop=1;jettySize=auto;html=1;strokeColor=#33FFFF;strokeWidth=10;align=center;verticalAlign=middle;fontFamily=Helvetica;fontSize=12;fontColor=default;fontStyle=1;labelBackgroundColor=none;autosize=1;resizable=0;endArrow=classic;" parent="1" target="Pq7IYaPup6Ngsr3kLZBk-2" edge="1">
          <mxGeometry relative="1" as="geometry">
            <mxPoint x="106" y="318" as="sourcePoint" />
            <mxPoint x="2922" y="318" as="targetPoint" />
            <Array as="points">
              <mxPoint x="848" y="318" />
              <mxPoint x="848" y="-680" />
            </Array>
          </mxGeometry>
        </mxCell>
      </root>
    </mxGraphModel>
  </diagram>
</mxfile>
